<?xml version='1.0' encoding='utf-8'?>
<svg xmlns="http://www.w3.org/2000/svg" viewBox="305 243 325 350" version="1.1">
  <title>CreatersDen</title>
  <defs>
    <linearGradient id="ivory" gradientUnits="userSpaceOnUse" x1="200" y1="130" x2="600" y2="420">
      <stop offset="0" stop-color="#f2ebe3" />
      <stop offset="1" stop-color="#cec9c5" />
    </linearGradient>
    <linearGradient id="graphite" gradientUnits="userSpaceOnUse" x1="55" y1="300" x2="225" y2="727">
      <stop offset="0" stop-color="#151619" />
      <stop offset="0.67" stop-color="#494949" />
      <stop offset="1" stop-color="#707471" />
    </linearGradient>
    <linearGradient id="inner-orange" gradientUnits="userSpaceOnUse" x1="189" y1="535" x2="329" y2="655">
      <stop offset="0" stop-color="#a6362d" />
      <stop offset="0.5" stop-color="#ff5634" />
      <stop offset="1" stop-color="#ff813e" />
    </linearGradient>
    <linearGradient id="orange" gradientUnits="userSpaceOnUse" x1="283" y1="746" x2="680" y2="478">
      <stop offset="0" stop-color="#a03b32" />
      <stop offset="0.45" stop-color="#fa4e34" />
      <stop offset="1" stop-color="#ff893f" />
    </linearGradient>
    <linearGradient id="play-blue" gradientUnits="userSpaceOnUse" x1="334" y1="278" x2="535" y2="533">
      <stop offset="0" stop-color="#7ca6b7" />
      <stop offset="1" stop-color="#96a0a9" />
    </linearGradient>
  </defs>
  <g id="emblem" transform="translate(308.086204 234.625277) scale(0.441183 0.441327)">
    <path id="left-ribbon" d="M 16 422 C 18 368 93 313 190 254 L 190 632 C 186 695 212 722 276 758 L 62 628 C 31 609 16 589 16 558 Z" fill="url(#graphite)" />
    <path id="inner-fold" d="M 190 514 C 196 549 226 573 283 605 C 312 622 334 625 365 609 C 340 638 316 662 282 689 C 239 724 230 745 286 773 L 276 758 C 212 723 187 697 190 632 Z" fill="url(#inner-orange)" />
    <path id="lower-ribbon" d="M 354 277 C 367 278 390 294 411 307 L 669 463 C 697 480 707 501 707 530 C 707 561 693 587 670 604 L 380 771 C 348 790 319 790 286 773 C 230 745 239 724 282 689 C 316 662 340 638 365 609 L 520 516 C 557 494 570 459 554 418 C 540 390 505 366 460 339 L 367 282 Z" fill="url(#orange)" />
    <path id="upper-ribbon" d="M 16 422 L 16 270 C 16 233 31 205 63 185 L 320 42 C 350 25 373 26 399 39 L 649 184 C 680 202 690 222 689 250 C 687 277 673 297 652 310 L 619 328 C 598 339 584 338 566 327 L 364 204 C 338 188 318 186 296 196 L 190 255 C 93 313 18 368 16 422 Z" fill="url(#ivory)" />
    <path id="play-symbol" d="M 330 299 C 330 276 348 270 367 282 L 460 339 C 505 366 540 390 554 418 L 369 536 C 348 550 330 543 330 521 Z" fill="url(#play-blue)" />
  </g>
</svg>
